<mxfile host="65bd71144e">
    <diagram id="PuRXsuhfijL69K7MNmrg" name="Page-1">
        <mxGraphModel dx="542" dy="191" grid="1" gridSize="10" guides="1" tooltips="1" connect="1" arrows="1" fold="1" page="1" pageScale="1" pageWidth="827" pageHeight="1169" math="0" shadow="0">
            <root>
                <mxCell id="0"/>
                <mxCell id="1" parent="0"/>
                <mxCell id="8" value="" style="rounded=0;whiteSpace=wrap;html=1;" parent="1" vertex="1">
                    <mxGeometry x="26.25" y="80" width="343.75" height="400" as="geometry"/>
                </mxCell>
                <mxCell id="2" value="" style="aspect=fixed;perimeter=ellipsePerimeter;html=1;align=center;shadow=0;dashed=0;spacingTop=3;image;image=img/lib/active_directory/database_server.svg;" parent="1" vertex="1">
                    <mxGeometry x="570" y="100" width="114.8" height="140" as="geometry"/>
                </mxCell>
                <mxCell id="3" value="Heroku&lt;br&gt;TDD" style="text;html=1;strokeColor=none;fillColor=none;align=center;verticalAlign=middle;whiteSpace=wrap;rounded=0;" parent="1" vertex="1">
                    <mxGeometry x="590" y="60" width="60" height="30" as="geometry"/>
                </mxCell>
                <mxCell id="5" value="" style="line;strokeWidth=1;rotatable=0;dashed=0;labelPosition=right;align=left;verticalAlign=middle;spacingTop=0;spacingLeft=6;points=[];portConstraint=eastwest;" parent="1" vertex="1">
                    <mxGeometry x="220" y="170" width="350" height="10" as="geometry"/>
                </mxCell>
                <mxCell id="6" value="Servidor" style="text;html=1;strokeColor=none;fillColor=none;align=center;verticalAlign=middle;whiteSpace=wrap;rounded=0;" parent="1" vertex="1">
                    <mxGeometry x="157.2" y="90" width="60" height="30" as="geometry"/>
                </mxCell>
                <mxCell id="7" value="" style="aspect=fixed;perimeter=ellipsePerimeter;html=1;align=center;shadow=0;dashed=0;spacingTop=3;image;image=img/lib/active_directory/generic_server.svg;" parent="1" vertex="1">
                    <mxGeometry x="150" y="110" width="67.2" height="120" as="geometry"/>
                </mxCell>
                <mxCell id="9" value="" style="strokeWidth=1;shadow=0;dashed=0;align=center;html=1;shape=mxgraph.mockup.containers.browserWindow;rSize=0;strokeColor=#666666;strokeColor2=#008cff;strokeColor3=#c4c4c4;mainText=,;recursiveResize=0;" parent="1" vertex="1">
                    <mxGeometry x="32.25" y="320" width="330" height="150" as="geometry"/>
                </mxCell>
                <mxCell id="10" value="Page 1" style="strokeWidth=1;shadow=0;dashed=0;align=center;html=1;shape=mxgraph.mockup.containers.anchor;fontSize=17;fontColor=#666666;align=left;" parent="9" vertex="1">
                    <mxGeometry x="60" y="12" width="110" height="26" as="geometry"/>
                </mxCell>
                <mxCell id="11" value="https://www.draw.io" style="strokeWidth=1;shadow=0;dashed=0;align=center;html=1;shape=mxgraph.mockup.containers.anchor;rSize=0;fontSize=17;fontColor=#666666;align=left;" parent="9" vertex="1">
                    <mxGeometry x="130" y="60" width="250" height="26" as="geometry"/>
                </mxCell>
                <mxCell id="12" value="" style="verticalLabelPosition=bottom;html=1;verticalAlign=top;align=center;strokeColor=none;fillColor=#00BEF2;shape=mxgraph.azure.code_file;pointerEvents=1;" parent="1" vertex="1">
                    <mxGeometry x="40" y="150" width="47.5" height="50" as="geometry"/>
                </mxCell>
                <mxCell id="13" value="" style="line;strokeWidth=1;rotatable=0;dashed=0;labelPosition=right;align=left;verticalAlign=middle;spacingTop=0;spacingLeft=6;points=[];portConstraint=eastwest;" parent="1" vertex="1">
                    <mxGeometry x="87.5" y="180" width="60" height="10" as="geometry"/>
                </mxCell>
                <mxCell id="15" style="edgeStyle=none;html=1;exitX=0.5;exitY=1;exitDx=0;exitDy=0;entryX=0.451;entryY=0.061;entryDx=0;entryDy=0;entryPerimeter=0;" parent="1" source="7" target="9" edge="1">
                    <mxGeometry relative="1" as="geometry"/>
                </mxCell>
                <mxCell id="16" value="PC" style="text;html=1;strokeColor=none;fillColor=none;align=center;verticalAlign=middle;whiteSpace=wrap;rounded=0;" parent="1" vertex="1">
                    <mxGeometry x="296" y="80" width="60" height="30" as="geometry"/>
                </mxCell>
            </root>
        </mxGraphModel>
    </diagram>
    <diagram id="Ho7__oo2VIMjKoJa1cht" name="Page-2">
        <mxGraphModel dx="638" dy="555" grid="1" gridSize="10" guides="1" tooltips="1" connect="1" arrows="1" fold="1" page="1" pageScale="1" pageWidth="827" pageHeight="1169" math="0" shadow="0">
            <root>
                <mxCell id="K-TbJAkYRku1Ei3Zl6Pr-0"/>
                <mxCell id="K-TbJAkYRku1Ei3Zl6Pr-1" parent="K-TbJAkYRku1Ei3Zl6Pr-0"/>
                <mxCell id="K-TbJAkYRku1Ei3Zl6Pr-2" value="" style="html=1;verticalLabelPosition=bottom;align=center;labelBackgroundColor=#ffffff;verticalAlign=top;strokeWidth=2;strokeColor=#0080F0;shadow=0;dashed=0;shape=mxgraph.ios7.icons.window;" vertex="1" parent="K-TbJAkYRku1Ei3Zl6Pr-1">
                    <mxGeometry x="50" y="30" width="290" height="550" as="geometry"/>
                </mxCell>
                <mxCell id="K-TbJAkYRku1Ei3Zl6Pr-3" value="Nombre" style="fillColor=none;strokeColor=none;html=1;fontSize=11;fontStyle=0;align=left;fontColor=#596780;fontStyle=1;fontSize=11" vertex="1" parent="K-TbJAkYRku1Ei3Zl6Pr-1">
                    <mxGeometry x="73.62" y="140" width="240" height="20" as="geometry"/>
                </mxCell>
                <mxCell id="K-TbJAkYRku1Ei3Zl6Pr-4" value="Watermelon Squad" style="rounded=1;arcSize=9;fillColor=#F7F8F9;align=left;spacingLeft=5;strokeColor=#DEE1E6;html=1;strokeWidth=2;fontSize=12" vertex="1" parent="K-TbJAkYRku1Ei3Zl6Pr-1">
                    <mxGeometry x="73.62" y="165" width="240" height="40" as="geometry"/>
                </mxCell>
                <mxCell id="K-TbJAkYRku1Ei3Zl6Pr-5" value="Peso" style="fillColor=none;strokeColor=none;html=1;fontSize=11;fontStyle=0;align=left;fontColor=#596780;fontStyle=1;fontSize=11" vertex="1" parent="K-TbJAkYRku1Ei3Zl6Pr-1">
                    <mxGeometry x="73.62" y="223" width="230" height="20" as="geometry"/>
                </mxCell>
                <mxCell id="K-TbJAkYRku1Ei3Zl6Pr-6" value="Watermelon Squad" style="rounded=1;arcSize=9;fillColor=#F7F8F9;align=left;spacingLeft=5;strokeColor=#DEE1E6;html=1;strokeWidth=2;fontSize=12" vertex="1" parent="K-TbJAkYRku1Ei3Zl6Pr-1">
                    <mxGeometry x="73.62" y="248" width="240" height="40" as="geometry"/>
                </mxCell>
                <mxCell id="K-TbJAkYRku1Ei3Zl6Pr-7" value="Cintura" style="fillColor=none;strokeColor=none;html=1;fontSize=11;fontStyle=0;align=left;fontColor=#596780;fontStyle=1;fontSize=11" vertex="1" parent="K-TbJAkYRku1Ei3Zl6Pr-1">
                    <mxGeometry x="73.62" y="320" width="60" height="20" as="geometry"/>
                </mxCell>
                <mxCell id="K-TbJAkYRku1Ei3Zl6Pr-8" value="Watermelon Squad" style="rounded=1;arcSize=9;fillColor=#F7F8F9;align=left;spacingLeft=5;strokeColor=#DEE1E6;html=1;strokeWidth=2;fontSize=12" vertex="1" parent="K-TbJAkYRku1Ei3Zl6Pr-1">
                    <mxGeometry x="133.62" y="320" width="180" height="33" as="geometry"/>
                </mxCell>
                <mxCell id="K-TbJAkYRku1Ei3Zl6Pr-9" value="Estatura" style="fillColor=none;strokeColor=none;html=1;fontSize=11;fontStyle=0;align=left;fontColor=#596780;fontStyle=1;fontSize=11" vertex="1" parent="K-TbJAkYRku1Ei3Zl6Pr-1">
                    <mxGeometry x="73.62" y="360" width="60" height="20" as="geometry"/>
                </mxCell>
                <mxCell id="K-TbJAkYRku1Ei3Zl6Pr-10" value="Watermelon Squad" style="rounded=1;arcSize=9;fillColor=#F7F8F9;align=left;spacingLeft=5;strokeColor=#DEE1E6;html=1;strokeWidth=2;fontSize=12" vertex="1" parent="K-TbJAkYRku1Ei3Zl6Pr-1">
                    <mxGeometry x="133.62" y="360" width="180" height="33" as="geometry"/>
                </mxCell>
                <mxCell id="K-TbJAkYRku1Ei3Zl6Pr-11" value="Edad" style="fillColor=none;strokeColor=none;html=1;fontSize=11;fontStyle=0;align=left;fontColor=#596780;fontStyle=1;fontSize=11" vertex="1" parent="K-TbJAkYRku1Ei3Zl6Pr-1">
                    <mxGeometry x="73.62" y="410" width="60" height="20" as="geometry"/>
                </mxCell>
                <mxCell id="K-TbJAkYRku1Ei3Zl6Pr-12" value="Watermelon Squad" style="rounded=1;arcSize=9;fillColor=#F7F8F9;align=left;spacingLeft=5;strokeColor=#DEE1E6;html=1;strokeWidth=2;fontSize=12" vertex="1" parent="K-TbJAkYRku1Ei3Zl6Pr-1">
                    <mxGeometry x="133.62" y="403.5" width="180" height="33" as="geometry"/>
                </mxCell>
                <mxCell id="K-TbJAkYRku1Ei3Zl6Pr-17" value="Hombre" style="shape=ellipse;fillColor=#eeeeee;strokeColor=#999999;gradientColor=#cccccc;html=1;align=left;spacingLeft=4;fontSize=17;fontColor=#666666;labelPosition=right;shadow=0;" vertex="1" parent="K-TbJAkYRku1Ei3Zl6Pr-1">
                    <mxGeometry x="73.62" y="460" width="15" height="15" as="geometry"/>
                </mxCell>
                <mxCell id="K-TbJAkYRku1Ei3Zl6Pr-19" value="Mujer" style="shape=ellipse;fillColor=#eeeeee;strokeColor=#999999;gradientColor=#cccccc;html=1;align=left;spacingLeft=4;fontSize=17;fontColor=#666666;labelPosition=right;shadow=0;" vertex="1" parent="K-TbJAkYRku1Ei3Zl6Pr-1">
                    <mxGeometry x="73.62" y="500" width="15" height="15" as="geometry"/>
                </mxCell>
                <mxCell id="K-TbJAkYRku1Ei3Zl6Pr-20" value="Calcular" style="rounded=1;html=1;shadow=0;dashed=0;whiteSpace=wrap;fontSize=10;fillColor=#666666;align=center;strokeColor=#4D4D4D;fontColor=#ffffff;" vertex="1" parent="K-TbJAkYRku1Ei3Zl6Pr-1">
                    <mxGeometry x="208.62" y="499" width="105.5" height="16.88" as="geometry"/>
                </mxCell>
                <mxCell id="K-TbJAkYRku1Ei3Zl6Pr-21" value="ICE: 34.5" style="text;html=1;strokeColor=none;fillColor=none;align=center;verticalAlign=middle;whiteSpace=wrap;rounded=0;" vertex="1" parent="K-TbJAkYRku1Ei3Zl6Pr-1">
                    <mxGeometry x="73.62" y="530" width="60" height="30" as="geometry"/>
                </mxCell>
                <mxCell id="K-TbJAkYRku1Ei3Zl6Pr-22" value="Resultado: Peso Normal" style="text;html=1;strokeColor=none;fillColor=none;align=center;verticalAlign=middle;whiteSpace=wrap;rounded=0;" vertex="1" parent="K-TbJAkYRku1Ei3Zl6Pr-1">
                    <mxGeometry x="206.37" y="539" width="110" height="30" as="geometry"/>
                </mxCell>
                <mxCell id="K-TbJAkYRku1Ei3Zl6Pr-23" value="Calculo de ICE" style="text;html=1;strokeColor=none;fillColor=none;align=center;verticalAlign=middle;whiteSpace=wrap;rounded=0;" vertex="1" parent="K-TbJAkYRku1Ei3Zl6Pr-1">
                    <mxGeometry x="138.12" y="100" width="101" height="30" as="geometry"/>
                </mxCell>
            </root>
        </mxGraphModel>
    </diagram>
</mxfile>